<svg width="105" height="109" viewBox="0 0 105 109" fill="none" xmlns="http://www.w3.org/2000/svg">
    <path 
        d="M28.684 27.297C28.684 27.297 37.566 1.33862 28.684 0.0334845C20.9233 -1.10764 14.6668 27.297 14.6668 27.297L15.5693 27.6573C15.5693 27.6573 18.3371 21.2922 20.0809 17.6286C21.8247 13.9649 25.9775 7.9001 27.4818 9.64183C28.986 11.3835 25.4962 13.8287 25.4962 13.8287C25.4962 13.8287 27.0606 14.2052 28.0233 15.7067C28.986 17.2081 28.684 27.297 28.684 27.297V27.297ZM12.621 25.0159C12.621 25.0159 11.5981 32.2218 11.899 35.9455C12.1998 39.6692 13.1625 46.2145 13.1625 46.2145C13.1625 46.2145 10.5764 45.0734 9.37301 40.9293C8.62899 38.3687 7.86876 35.2248 7.86876 35.2248C7.86876 35.2248 5.70265 36.2458 5.10096 35.1647C4.4981 34.0837 6.72438 33.0026 8.35012 30.7215C9.97355 28.4381 12.621 25.0159 12.621 25.0159V25.0159ZM36.0849 13.8287C36.0849 13.8287 37.3785 15.791 37.3785 18.5595C37.3785 22.163 36.0849 23.9048 36.0849 23.9048L44.3883 23.7546C44.3883 23.7546 44.8697 25.4363 45.7711 26.0369C46.6736 26.6375 50.8843 26.9378 51.5462 27.6585C52.2081 28.3792 51.486 28.4993 52.0276 28.9798C52.5691 29.4603 53.1708 28.7996 53.592 30.0008C54.0132 31.202 53.592 32.223 53.592 32.223C53.592 32.223 53.7725 32.6134 54.2238 32.6734C54.6762 32.7335 55.7292 32.6734 55.7292 32.6734C55.7292 32.6734 56.8122 31.202 57.1431 31.5623C57.4741 31.9227 56.9927 33.6644 56.9927 33.6644L58.9471 34.0848C58.9471 34.0848 60.6017 32.5833 61.6848 32.9437C62.7679 33.3041 63.218 34.235 64.0013 34.9257C64.7835 35.6163 67.4599 37.2668 67.4599 37.2668C67.4599 37.2668 66.1663 33.326 65.1735 31.3221C63.94 28.8296 60.8112 26.3984 60.9315 25.1672C61.0519 23.936 61.8642 23.5155 61.8642 23.5155C61.8642 23.5155 60.4814 21.7438 58.4055 20.7239C56.3297 19.7041 54.8555 19.6128 54.0132 17.6609C53.1708 15.709 55.0962 2.85858 52.4487 2.25799C49.8013 1.6574 43.5749 15.4999 41.1982 15.4399C38.8226 15.3763 36.0849 13.8287 36.0849 13.8287V13.8287ZM61.5344 37.7461L49.8013 45.2235C49.8013 45.2235 51.9963 46.9052 53.953 47.8049C55.9073 48.7058 60.8413 50.8079 60.8413 50.8079L61.1421 49.1563C61.1421 49.1563 60.6318 48.1653 60.2997 47.925C59.9676 47.6848 59.3972 47.2944 59.3972 47.2944C59.58 46.3173 59.7223 46.449 59.5777 45.1323C59.4574 44.0362 58.7654 43.4206 58.7654 43.4206L61.5344 37.7461ZM68.6749 39.8678C68.6749 39.8678 66.1084 43.3605 66.3075 44.2764C66.5088 45.1923 67.3905 50.1969 70.3597 52.9181C73.3276 55.6404 78.9419 57.7228 81.4691 59.0048C83.9962 60.2869 84.4371 61.4465 85.3998 61.7676C86.3625 62.0887 87.7279 61.3275 89.6927 60.8875C91.6563 60.4463 93.6222 60.5664 93.6222 60.5664C93.6222 60.5664 87.4849 55.7224 84.1964 53.8802C80.9079 52.0391 75.2531 49.564 74.0902 48.156C72.5651 46.3138 72.6068 45.1519 71.283 43.3109C69.9581 41.4698 68.6749 39.8678 68.6749 39.8678V39.8678ZM64.1413 81.9856C64.1413 81.9856 67.0434 82.0734 70.3203 82.9466C75.0899 84.2182 79.2648 85.7682 82.1911 85.9888C87.0035 86.3492 94.8256 77.9027 97.7126 75.2197C99.918 73.1731 106.016 71.1368 104.854 67.6141C103.69 64.0891 92.391 61.4396 91.8981 65.5721C91.6181 67.9329 94.0249 68.3741 94.0249 68.3741C94.0249 68.3741 94.7446 69.2149 94.3442 70.0546C93.9439 70.8966 92.6988 71.8575 92.2985 72.9375C91.8969 74.0185 92.3783 74.5787 92.0184 75.1793C91.6574 75.7799 86.2421 82.2247 81.2284 82.145C76.2158 82.0653 72.3302 81.0443 70.6397 80.6643C67.7932 80.0233 64.9062 80.4241 64.9062 80.4241L64.1413 81.9856V81.9856ZM60.9338 59.766C60.9338 59.766 55.8784 60.5271 53.9935 61.1681C52.1086 61.808 47.457 63.6098 47.5357 64.9715C47.6167 66.3321 50.0223 66.0918 50.0223 66.0918L48.2993 69.3743C48.2993 69.3743 48.8987 69.5372 49.3014 70.0176C49.7018 70.497 49.8013 70.6968 49.8013 70.6968H51.1458L51.0255 71.9777L50.1438 72.338C50.1438 72.338 49.1417 78.2238 50.3035 78.2631C51.4675 78.3024 51.2268 77.4627 51.7475 76.9822C52.2706 76.5017 55.279 75.0603 56.4824 73.6593C57.6858 72.2583 58.6069 69.3743 58.6069 69.3743C58.6069 69.3743 56.3216 69.8548 56.0011 68.4145C55.6794 66.9731 57.5238 66.0122 57.5238 66.0122C57.5238 66.0122 55.9583 65.892 56.0798 65.4104C56.2001 64.9311 57.363 64.2104 58.5664 62.9306C59.7698 61.6475 60.9338 59.766 60.9338 59.766V59.766Z" 
        fill="#2D2D2D"
    />
    <path 
        d="M37.7618 46C37.7618 46 31.161 48.7269 21.201 49.1272C11.316 49.5264 11.0414 47.5723 11.0414 47.5723C11.0414 47.5723 8.28102 47.644 7.88059 50.1314C7.48016 52.6165 8.84994 55.7866 8.84994 55.7866C8.84994 55.7866 7.80097 55.9069 6.52005 55.5852C5.24143 55.2636 4.20054 54.9027 4.20054 54.9027C4.20054 54.9027 3.68125 56.5478 5.08103 58.9936C6.48081 61.4405 7.79981 63.1239 7.79981 63.1239L1.60062 64.6071C1.60062 64.6071 2.20185 65.8103 3.96052 66.2522C5.72034 66.6919 7.32091 67.0135 7.32091 67.0135C7.32091 67.0135 2.68075 68.8993 1.92027 69.0185C1.1598 69.1388 4.73621e-05 69.3401 4.73621e-05 69.3401C4.73621e-05 69.3401 -0.0530359 70.6879 3.39506 71.3636C5.59802 71.7951 7.54478 71.7165 9.04842 71.7951C11.6864 71.9328 12.7989 72.8676 12.7989 72.8676L5.32221 76.5178C5.32221 76.5178 6.65045 77.3901 8.57067 77.2998C10.4909 77.2096 11.601 77.1795 11.601 77.1795L5.66149 81.1189C5.66149 81.1189 6.2304 83.1945 10.5821 83.3749C14.9326 83.5554 15.8015 83.6156 15.8015 83.6156C15.8015 83.6156 14.2113 84.5481 12.8312 85.5407C11.4522 86.5322 9.92199 87.9171 9.92199 87.9171C9.92199 87.9171 11.6022 88.0675 12.0522 88.6089C12.5023 89.1504 11.9922 89.4512 12.8023 89.9626C13.6113 90.4728 16.9717 91.8877 16.9717 91.8877L14.4514 96.5791C14.4514 96.5791 18.2007 96.0689 19.522 95.9775C20.8421 95.8872 22.8812 95.8872 22.8812 95.8872L19.4008 102.083C19.4008 102.083 23.1259 100.582 25.3403 100.459C27.5018 100.339 29.9897 100.639 29.9897 100.639L28.6696 103.887C28.6696 103.887 35.9593 102.204 36.6494 102.714C37.3406 103.226 35.6293 104.218 35.9004 106.083C36.1693 107.947 37.7607 109 37.7607 109L55 85.7802C55 85.7802 52.4797 85.8612 50.2802 87.1454C48.0807 88.4273 45.9205 89.4315 45.9205 89.4315L46.801 86.1828L46.4409 86.0625L46.1213 85.6611L41.001 87.3051C41.001 87.3051 41.4015 84.5388 42.1608 83.4166C42.9213 82.292 43.9622 80.5682 43.9622 80.5682C43.9622 80.5682 36.4832 83.4154 35.0015 82.6137C33.5198 81.8119 35.2808 76.8799 35.2808 76.8799L34.4395 76.2366C34.4395 76.2366 33.2013 76.5178 32.7997 76.0365C32.3993 75.5552 35.3996 70.3015 35.3996 70.3015C35.3996 70.3015 32.9209 70.5422 31.8407 71.1843C30.7594 71.8264 29.0412 71.9467 29.0412 71.9467C29.0412 71.9467 28.3996 70.9841 28.5207 68.9791C28.6407 66.9742 29.3193 64.6082 29.3193 64.6082L26.0789 64.4474L26.4389 63.7868L22.9193 63.5253C22.9193 63.5253 24.079 61.7205 26.2393 60.5173C28.3984 59.3141 31.3988 58.8328 31.3988 58.8328L31.9584 57.1876C31.9584 57.1876 30.5183 57.1078 29.9182 56.7468C29.317 56.3859 28.9177 55.7044 28.9177 55.7044L34.9992 52.4569L36.0793 51.1519L34.3195 50.01C34.3195 50.01 35.8797 49.5692 36.3597 48.9271C36.8421 48.285 37.7618 46 37.7618 46V46Z" 
        fill="#2D2D2D"
    />
</svg>
